<svg xmlns="http://www.w3.org/2000/svg" width="200" height="40" viewBox="0,0,200,40"><path d="M1 22 C119 10,100 6,191 27" stroke="#999" fill="none"/><path d="M3 36 C121 37,119 4,183 36" stroke="#666" fill="none"/><path fill="#222" d="M130.32 9.21L130.38 9.28L130.49 9.38Q134.15 11.79 138.91 12.02L138.91 12.02L138.94 12.05Q143.59 12.25 147.86 10.49L147.77 10.41L147.91 10.55Q147.53 10.97 146.77 13.75L146.80 13.78L146.90 13.88Q144.21 14.96 141.24 15.11L141.06 14.93L141.05 14.92Q138.21 15.20 135.32 14.48L135.33 14.49L135.32 14.48Q136.06 18.16 136.26 21.81L136.22 21.78L136.06 21.62Q138.10 21.87 139.70 21.83L139.80 21.93L139.75 21.88Q140.97 21.88 143.37 21.77L143.48 21.88L143.35 21.75Q143.31 22.39 143.31 23.08L143.26 23.03L143.39 24.50L143.32 24.43Q140.94 24.44 136.15 24.52L136.12 24.50L136.07 24.44Q136.08 28.57 135.51 32.56L135.49 32.54L135.64 32.70Q138.24 32.02 140.98 32.13L141.02 32.18L140.90 32.06Q143.73 32.26 146.32 33.09L146.27 33.04L146.19 32.96Q146.41 33.91 146.67 34.67L146.59 34.59L147.13 36.19L147.08 36.14Q143.80 34.77 140.38 34.77L140.51 34.90L140.36 34.75Q135.60 34.86 131.33 37.11L131.36 37.14L131.29 37.06Q133.55 30.18 133.28 23.07L133.31 23.10L133.36 23.14Q133.05 15.94 130.38 9.28ZM130.89 37.88L130.86 37.85L130.75 37.74Q132.01 37.02 132.77 36.67L132.83 36.74L132.89 36.80Q132.71 37.57 132.14 39.10L132.03 38.99L131.95 38.91Q136.56 37.00 141.62 37.27L141.57 37.21L141.71 37.35Q146.88 37.65 150.88 40.36L150.86 40.33L150.80 40.28Q149.58 37.69 148.89 35.75L148.85 35.70L148.87 35.73Q147.95 35.18 146.96 34.84L146.90 34.78L146.97 34.85Q146.67 33.56 146.52 32.76L146.47 32.72L146.41 32.65Q143.34 31.67 140.18 31.67L140.25 31.74L140.21 31.71Q139.09 31.73 137.95 31.85L137.94 31.84L137.93 31.82Q138.06 30.58 138.10 29.37L138.13 29.39L138.09 26.77L138.23 26.91Q139.99 26.77 141.78 26.81L141.71 26.73L141.78 26.80Q143.66 26.90 145.45 27.05L145.45 27.05L145.43 27.02Q145.28 26.00 145.28 25.05L145.22 24.99L145.30 23.17L144.58 23.33L144.41 23.15Q144.07 23.31 143.62 23.31L143.66 23.35L143.68 23.38Q143.65 22.66 143.80 21.36L143.70 21.27L143.78 21.34Q142.22 21.61 141.04 21.65L140.99 21.60L141.01 21.62Q140.12 21.68 138.29 21.61L138.20 21.51L138.12 21.43Q138.05 20.03 137.86 17.21L138.04 17.39L138.00 17.35Q139.06 17.50 140.05 17.50L139.94 17.39L140.00 17.44Q144.66 17.38 148.35 15.48L148.45 15.58L148.47 15.60Q149.00 13.20 149.88 11.00L149.82 10.94L149.83 10.94Q148.51 11.79 147.67 12.14L147.71 12.18L147.71 12.17Q147.97 11.37 148.43 9.81L148.38 9.77L148.50 9.89Q143.72 11.88 138.84 11.57L138.88 11.61L138.94 11.67Q133.62 11.34 129.78 8.48L129.67 8.38L129.84 8.54Q132.70 15.48 133.01 23.10L132.87 22.95L133.05 23.13Q133.27 30.97 130.76 37.75Z"/><path fill="#222" d="M25.54 35.23L25.51 35.19L23.11 28.34L23.02 28.24Q18.82 15.83 12.88 9.43L12.74 9.29L12.81 9.36Q14.73 10.33 17.32 10.94L17.32 10.93L17.46 11.08Q22.46 17.22 26.80 29.97L26.87 30.05L26.93 30.11Q30.01 22.03 30.70 20.43L30.62 20.35L30.70 20.44Q32.99 14.73 35.81 11.42L35.85 11.47L35.85 11.46Q37.84 11.01 40.46 10.14L40.59 10.26L40.48 10.15Q35.93 14.77 32.88 22.01L32.94 22.07L32.93 22.05Q31.55 25.74 27.86 35.26L27.88 35.27L27.77 35.16Q27.22 35.19 26.65 35.15L26.57 35.07L26.65 35.15Q26.16 35.23 25.59 35.27ZM30.59 37.69L30.51 37.61L30.55 37.64Q33.29 27.60 34.85 23.56L34.86 23.56L34.80 23.51Q37.79 15.80 42.21 10.93L42.36 11.08L42.35 11.07Q41.21 11.34 39.12 12.06L39.23 12.18L40.23 10.70L40.36 10.83Q40.92 10.14 41.53 9.49L41.56 9.52L41.52 9.48Q38.66 10.42 35.65 10.99L35.65 10.99L35.74 11.08Q31.24 16.29 27.36 27.75L27.45 27.84L27.50 27.89Q23.75 17.67 20.55 13.29L20.50 13.24L20.63 13.38Q20.25 13.30 19.37 13.14L19.33 13.10L19.21 12.98Q18.97 12.59 17.38 10.54L17.48 10.64L17.52 10.68Q14.50 9.91 11.80 8.50L11.75 8.45L11.88 8.58Q18.40 15.56 22.78 28.35L22.84 28.41L22.88 28.45Q24.08 32.09 25.26 35.66L25.18 35.59L25.12 35.53Q25.55 35.65 26.38 35.53L26.34 35.49L26.41 35.56Q26.83 36.32 27.52 37.66L27.37 37.51L27.46 37.60Q28.25 37.48 28.97 37.55L28.99 37.57L29.00 37.58Q29.86 37.72 30.62 37.72Z"/><path fill="#111" d="M52.56 34.89L52.50 34.83L52.62 34.95Q48.41 34.35 46.58 32.91L46.57 32.89L46.66 32.99Q44.72 31.43 44.30 28.42L44.43 28.55L44.32 28.44Q44.23 28.01 43.89 23.25L43.98 23.34L43.94 23.30Q43.99 22.13 43.91 20.87L43.93 20.89L43.96 20.92Q43.81 15.90 46.02 14.15L45.99 14.12L46.01 14.14Q48.66 12.04 56.43 11.35L56.41 11.33L56.39 11.31Q57.83 11.27 59.47 11.31L59.30 11.13L59.30 11.13Q59.39 11.22 62.36 11.22L62.31 11.18L62.35 11.21Q63.10 11.13 64.82 11.29L64.91 11.38L64.82 11.29Q64.30 12.22 63.27 15.30L63.40 15.43L63.35 15.38Q61.23 14.14 58.23 14.14L58.26 14.17L58.32 14.23Q57.49 14.17 56.70 14.24L56.71 14.26L56.73 14.28Q51.65 14.75 49.14 16.73L49.15 16.75L49.02 16.62Q47.13 18.34 46.98 21.69L46.84 21.55L46.83 21.55Q46.97 22.34 47.01 23.59L46.98 23.56L46.91 23.49Q47.06 28.36 49.46 30.46L49.36 30.36L49.37 30.37Q51.57 32.33 56.55 32.64L56.56 32.65L56.51 32.60Q59.76 32.88 62.77 31.09L62.66 30.98L62.79 31.11Q63.32 33.78 63.93 35.15L64.01 35.23L63.85 35.07Q61.89 35.46 60.25 35.42L60.17 35.34L60.13 35.30Q55.74 35.33 52.62 34.95ZM67.68 38.63L67.67 38.62L67.62 38.56Q65.97 35.70 65.28 33.11L65.31 33.13L65.15 32.98Q64.72 33.24 63.73 33.62L63.91 33.79L63.75 33.63Q63.40 32.83 63.21 31.99L63.36 32.14L62.85 30.29L62.95 30.39Q59.62 32.39 56.49 32.28L56.51 32.29L56.60 32.38Q52.20 32.06 49.88 30.30L49.93 30.36L49.87 30.30Q48.88 28.62 48.96 25.69L48.87 25.61L48.82 25.56Q48.93 21.02 51.41 18.89L51.58 19.07L51.53 19.01Q53.60 17.05 58.28 16.44L58.21 16.36L58.31 16.47Q59.08 16.32 59.80 16.32L59.76 16.28L59.73 16.25Q62.64 16.38 64.74 17.90L64.64 17.81L64.67 17.84Q65.24 15.78 66.46 12.54L66.32 12.40L66.39 12.47Q66.14 12.50 65.59 12.44L65.50 12.35L65.49 12.34Q65.00 12.34 64.73 12.34L64.85 12.46L64.73 12.34Q64.88 11.76 65.33 10.77L65.36 10.81L65.41 10.85Q65.28 10.95 62.79 10.87L62.72 10.80L62.79 10.87Q60.25 10.76 59.60 10.79L59.51 10.69L59.48 10.67Q49.14 11.18 45.67 13.76L45.66 13.75L45.54 13.64Q43.48 15.42 43.48 19.34L43.52 19.38L43.57 19.43Q43.61 20.57 43.72 23.27L43.70 23.25L43.73 23.28Q43.88 26.86 44.11 28.57L43.94 28.41L44.12 28.58Q44.40 31.60 46.00 33.13L45.98 33.10L45.97 33.10Q46.47 33.79 47.73 34.93L47.71 34.92L47.75 34.95Q51.12 36.84 56.38 37.60L56.31 37.54L56.23 37.46Q62.78 38.52 67.77 38.71Z"/><path fill="#333" d="M166.75 24.14L166.76 24.14L166.68 24.06Q164.82 23.92 163.58 25.34L163.61 25.37L163.73 25.49Q162.49 26.92 162.30 28.82L162.27 28.80L162.29 28.81Q161.94 30.75 163.03 31.72L163.17 31.87L163.14 31.83Q164.08 32.66 166.17 32.54L166.20 32.57L166.37 32.74Q168.44 32.56 169.54 31.88L169.41 31.74L169.47 31.80Q170.51 30.60 170.51 29.04L170.55 29.08L170.55 29.08Q170.65 28.79 170.57 28.41L170.46 28.30L170.56 28.41Q170.59 26.68 169.48 25.32L169.53 25.37L169.54 25.38Q168.47 24.06 166.79 24.18ZM166.26 35.18L166.39 35.31L166.38 35.30Q161.91 35.21 160.50 34.45L160.47 34.41L160.50 34.44Q159.42 33.63 159.23 31.92L159.38 32.07L159.39 32.08Q159.35 31.39 159.39 30.67L159.33 30.61L159.37 30.65Q159.42 29.60 159.42 29.14L159.33 29.05L159.47 29.19Q159.79 26.20 159.94 25.51L160.07 25.64L159.96 25.53Q160.53 23.70 161.37 22.29L161.25 22.18L161.37 22.29Q163.93 17.82 169.87 11.46L170.02 11.61L169.92 11.50Q172.67 11.28 174.87 10.48L174.77 10.38L174.71 10.32Q167.89 17.82 164.70 22.04L164.77 22.12L164.77 22.12Q165.79 21.65 167.08 21.65L167.11 21.68L167.06 21.62Q170.35 21.61 171.87 23.55L171.79 23.46L171.79 23.46Q173.21 25.19 173.55 28.73L173.53 28.71L173.51 28.69Q173.53 29.35 173.53 29.96L173.56 30.00L173.53 29.96Q173.68 33.24 171.47 34.30L171.43 34.26L171.49 34.32Q170.20 34.85 166.31 35.23ZM168.68 37.71L168.59 37.62L168.66 37.70Q169.91 37.61 171.89 37.69L171.82 37.61L171.96 37.76Q173.54 37.77 175.10 37.05L175.01 36.97L175.13 37.08Q176.09 36.14 176.09 34.35L176.22 34.48L176.07 34.33Q176.16 33.92 175.99 32.93L175.93 32.88L175.93 32.87Q175.80 31.93 175.80 31.47L175.86 31.53L175.81 31.48Q174.89 26.72 173.29 24.82L173.42 24.94L173.29 24.81Q173.21 24.69 173.06 24.47L173.06 24.46L172.79 24.27L172.66 24.19L172.79 24.32Q172.48 23.85 171.87 22.90L171.88 22.91L171.77 22.80Q170.97 21.96 168.99 21.50L168.93 21.44L168.89 21.40Q170.08 19.77 173.05 16.08L173.18 16.21L177.27 10.79L177.38 10.89Q175.84 11.79 173.44 12.55L173.34 12.45L173.44 12.56Q174.36 11.57 176.15 9.59L175.96 9.40L176.11 9.55Q173.64 10.55 169.76 11.12L169.68 11.04L169.72 11.08Q164.05 17.02 161.08 21.97L161.01 21.90L161.14 22.03Q159.65 24.58 159.08 30.82L158.96 30.70L158.93 30.67Q158.99 31.38 159.07 32.33L158.96 32.22L159.01 32.27Q159.14 34.07 160.24 34.99L160.08 34.83L160.21 34.96Q160.49 35.01 160.45 35.05L160.44 35.03L160.48 35.07Q160.95 36.08 161.75 36.49L161.64 36.39L161.77 36.51Q163.10 37.08 165.04 37.27L165.16 37.40L165.01 37.24Q165.15 37.39 168.66 37.69ZM168.39 26.43L168.40 26.44L168.36 26.40Q168.94 26.29 169.89 26.78L169.80 26.69L169.79 26.68Q170.19 27.69 170.19 28.34L170.22 28.37L170.23 28.38Q170.51 30.33 169.55 31.32L169.50 31.27L169.37 31.14Q168.50 32.05 166.40 32.36L166.38 32.33L166.27 32.22Q164.92 32.32 164.39 32.05L164.40 32.06L164.40 32.06Q164.14 31.54 164.14 31.23L164.06 31.15L164.06 31.15Q164.00 28.04 166.93 26.75L166.78 26.60L166.91 26.73Q167.56 26.28 168.32 26.36Z"/><path fill="#333" d="M83.49 35.04L83.56 35.11L81.52 35.35L81.45 35.29Q81.01 35.30 80.04 35.36L80.05 35.37L80.11 35.43Q79.01 35.36 78.51 35.36L78.53 35.37L78.63 35.47Q76.86 35.34 75.83 34.50L76.01 34.68L75.95 34.62Q76.71 33.47 78.34 31.34L78.31 31.31L78.44 31.44Q79.51 32.82 81.72 32.59L81.86 32.72L81.76 32.62Q82.71 32.55 83.36 31.90L83.28 31.82L83.36 31.91Q84.10 31.34 83.98 30.47L83.97 30.46L83.96 30.45Q83.79 25.78 83.86 21.21L83.91 21.26L83.96 21.31Q83.82 16.53 84.35 11.92L84.42 11.98L84.53 12.10Q86.47 11.91 88.60 10.88L88.48 10.75L88.55 10.82Q86.63 17.51 86.63 24.74L86.61 24.72L86.67 24.78Q86.73 28.39 87.19 31.89L87.05 31.74L87.13 31.83Q87.14 32.11 87.14 32.45L87.16 32.47L87.28 32.58Q87.21 33.09 86.99 33.63L87.02 33.66L86.87 33.51Q86.42 34.88 83.60 35.15ZM88.47 37.93L88.42 37.88L88.91 38.02L89.12 37.82L89.48 37.80L89.35 37.67Q89.74 37.48 89.82 37.37L89.81 37.36L89.70 37.25Q90.01 36.19 89.74 35.20L89.72 35.18L89.65 35.11Q88.34 29.34 88.60 22.98L88.71 23.09L88.59 22.97Q88.82 16.85 90.61 10.95L90.68 11.02L90.68 11.02Q89.80 11.66 88.54 12.38L88.54 12.38L88.57 12.40Q88.62 11.50 89.03 9.98L89.09 10.03L89.08 10.02Q86.56 11.34 83.89 11.65L84.00 11.76L83.91 11.66Q83.61 16.12 83.53 21.07L83.56 21.10L83.55 21.09Q83.43 26.95 83.51 30.37L83.61 30.48L83.58 30.44Q83.61 32.19 81.85 32.34L81.73 32.21L81.78 32.27Q80.13 32.44 78.46 30.81L78.33 30.68L78.52 30.87Q76.30 33.21 75.34 34.78L75.35 34.78L75.45 34.88Q75.99 35.42 77.02 35.65L77.00 35.63L76.99 35.62Q77.06 35.92 76.80 36.15L76.80 36.15L76.81 36.16Q78.15 37.01 80.13 37.27L80.22 37.37L80.25 37.40Q80.53 37.33 83.82 37.64L83.88 37.69L83.90 37.72Q87.19 38.01 88.56 38.01Z"/><path fill="#444" d="M112.48 15.15L112.51 15.18L112.41 15.08Q108.16 15.13 104.47 14.14L104.33 14.00L104.33 14.01Q106.04 18.76 106.23 23.59L106.23 23.60L106.05 23.42Q106.42 28.39 105.20 32.99L105.14 32.94L105.08 32.87Q108.00 32.37 111.50 32.21L111.36 32.07L111.33 32.05Q115.43 32.03 117.22 29.60L117.19 29.57L117.12 29.50Q118.72 27.52 118.91 23.41L118.89 23.39L118.88 23.38Q118.92 21.59 118.47 19.88L118.45 19.87L118.55 19.97Q117.19 15.14 112.47 15.14ZM100.59 37.18L100.50 37.09L100.58 37.17Q103.51 31.54 103.51 24.84L103.37 24.69L103.40 24.73Q103.34 16.13 99.04 9.13L99.09 9.18L99.17 9.26Q104.37 11.87 112.63 12.06L112.59 12.02L112.59 12.02Q121.54 12.29 121.88 19.45L121.85 19.42L121.88 19.45Q122.02 22.18 121.98 23.62L121.93 23.57L121.96 23.60Q121.93 28.33 121.09 30.50L121.09 30.50L120.94 30.35Q120.58 31.51 119.82 32.35L119.84 32.37L119.91 32.44Q118.57 33.99 115.94 34.49L115.78 34.33L115.83 34.38Q114.26 34.67 111.25 34.90L111.24 34.89L111.34 34.98Q105.13 35.37 100.53 37.12ZM118.54 37.09L118.41 36.96L118.49 37.03Q121.17 36.63 122.81 35.15L122.90 35.24L122.79 35.13Q123.96 33.33 123.92 30.59L123.93 30.60L123.92 30.59Q123.95 29.25 123.80 25.75L123.84 25.79L123.55 21.31L123.43 21.19Q123.23 18.89 122.27 16.80L122.30 16.82L122.28 16.80Q121.81 15.91 121.13 15.27L121.21 15.35L121.07 15.06L121.21 15.20Q119.50 12.23 115.08 11.85L114.97 11.74L115.11 11.88Q112.25 11.57 105.25 10.85L105.26 10.86L105.31 10.91Q102.06 10.48 98.37 8.46L98.47 8.56L98.43 8.53Q103.12 15.76 103.12 24.52L103.30 24.70L103.19 24.59Q103.15 31.56 99.80 37.73L99.87 37.79L99.87 37.79Q100.55 37.52 101.88 37.02L101.78 36.92L101.89 37.04Q101.62 37.95 100.75 39.43L100.64 39.32L100.57 39.26Q103.67 38.25 107.02 37.75L107.08 37.80L107.03 37.75Q109.06 37.38 112.71 37.27L112.73 37.29L112.69 37.25Q116.59 37.15 118.42 36.96ZM118.52 23.40L118.60 23.47L118.41 23.29Q118.18 31.43 111.48 31.81L111.47 31.80L111.51 31.84Q109.43 31.82 107.37 32.09L107.49 32.20L107.53 32.24Q108.12 28.26 108.12 24.61L108.21 24.70L108.16 24.65Q108.05 20.84 107.32 17.00L107.41 17.09L107.39 17.07Q109.71 17.49 114.40 17.49L114.37 17.45L114.36 17.45Q115.80 17.37 117.44 18.32L117.33 18.21L117.32 18.20Q118.58 20.45 118.43 23.30Z"/></svg>